<svg width="1600" height="900" viewBox="0 0 1600 900" fill="none" xmlns="http://www.w3.org/2000/svg">
  <rect width="1600" height="900" fill="#04070B"/>
  <circle cx="1310" cy="130" r="260" fill="#5B7FFF" fill-opacity="0.22"/>
  <circle cx="210" cy="810" r="280" fill="#FF5A00" fill-opacity="0.25"/>
  <rect x="110" y="130" width="1380" height="640" rx="38" fill="white" fill-opacity="0.05" stroke="white" stroke-opacity="0.18"/>
  <rect x="176" y="208" width="532" height="484" rx="28" fill="#101A1E" stroke="#2F4A55"/>
  <rect x="754" y="222" width="668" height="96" rx="18" fill="white" fill-opacity="0.08"/>
  <rect x="754" y="348" width="668" height="96" rx="18" fill="white" fill-opacity="0.08"/>
  <rect x="754" y="474" width="668" height="96" rx="18" fill="white" fill-opacity="0.08"/>
  <rect x="754" y="600" width="420" height="70" rx="16" fill="#FF5A00" fill-opacity="0.9"/>
  <rect x="238" y="290" width="408" height="68" rx="14" fill="white" fill-opacity="0.1"/>
  <rect x="238" y="380" width="408" height="68" rx="14" fill="white" fill-opacity="0.1"/>
  <rect x="238" y="470" width="292" height="68" rx="14" fill="white" fill-opacity="0.1"/>
  <text x="214" y="258" fill="#F9FBFF" font-family="Arial, sans-serif" font-size="40" font-weight="700">Curehire</text>
  <text x="786" y="285" fill="#E7EBF6" font-family="Arial, sans-serif" font-size="28">Recruitment dashboard rebuild</text>
  <text x="786" y="411" fill="#E7EBF6" font-family="Arial, sans-serif" font-size="28">Automated candidate screening</text>
  <text x="786" y="537" fill="#E7EBF6" font-family="Arial, sans-serif" font-size="28">Pipeline scoring with AI models</text>
</svg>
