<svg width="1600" height="900" viewBox="0 0 1600 900" fill="none" xmlns="http://www.w3.org/2000/svg">
  <rect width="1600" height="900" fill="#05070A"/>
  <circle cx="1260" cy="160" r="280" fill="#FF5A00" fill-opacity="0.25"/>
  <circle cx="320" cy="760" r="300" fill="#7B4DFF" fill-opacity="0.2"/>
  <rect x="128" y="146" width="1344" height="608" rx="36" fill="white" fill-opacity="0.05" stroke="white" stroke-opacity="0.2"/>
  <rect x="210" y="236" width="1180" height="468" rx="28" fill="#0E131C" stroke="#344054"/>
  <rect x="270" y="286" width="420" height="54" rx="14" fill="white" fill-opacity="0.1"/>
  <rect x="270" y="362" width="300" height="40" rx="12" fill="white" fill-opacity="0.08"/>
  <rect x="270" y="420" width="300" height="40" rx="12" fill="white" fill-opacity="0.08"/>
  <rect x="270" y="478" width="300" height="40" rx="12" fill="white" fill-opacity="0.08"/>
  <rect x="760" y="286" width="558" height="328" rx="24" fill="#101F2D"/>
  <rect x="798" y="336" width="480" height="44" rx="12" fill="white" fill-opacity="0.16"/>
  <rect x="798" y="402" width="380" height="44" rx="12" fill="white" fill-opacity="0.12"/>
  <rect x="798" y="468" width="430" height="44" rx="12" fill="white" fill-opacity="0.12"/>
  <text x="272" y="268" fill="#FFFFFF" font-family="Arial, sans-serif" font-size="36" font-weight="700">Feature</text>
  <text x="274" y="332" fill="#E4E8F2" font-family="Arial, sans-serif" font-size="30">Design system + product engineering</text>
</svg>
